<?xml version="1.0" encoding="UTF-8" standalone="no"?>
<!DOCTYPE svg PUBLIC "-//W3C//DTD SVG 1.1//EN" "http://www.w3.org/Graphics/SVG/1.1/DTD/svg11.dtd">
<svg width="100%" height="100%" viewBox="0 0 1107 1107" version="1.1" xmlns="http://www.w3.org/2000/svg" xmlns:xlink="http://www.w3.org/1999/xlink" xml:space="preserve" xmlns:serif="http://www.serif.com/" style="fill-rule:evenodd;clip-rule:evenodd;stroke-linejoin:round;stroke-miterlimit:2;">
    <g transform="matrix(1,0,0,1,-371.775,-513.674)">
        <g transform="matrix(1,0,0,1,-431.738,-494.536)">
            <path d="M1909.84,1174.16C1909.84,1082.57 1835.48,1008.21 1743.89,1008.21L969.462,1008.21C877.872,1008.21 803.513,1082.57 803.513,1174.16L803.513,1948.59C803.513,2040.18 877.872,2114.54 969.462,2114.54L1743.89,2114.54C1835.48,2114.54 1909.84,2040.18 1909.84,1948.59L1909.84,1174.16Z" style="fill:rgb(194,67,10);"/>
        </g>
        <g transform="matrix(1,0,0,1,-431.738,-494.536)">
            <clipPath id="_clip1">
                <path d="M1909.84,1174.16C1909.84,1082.57 1835.48,1008.21 1743.89,1008.21L969.462,1008.21C877.872,1008.21 803.513,1082.57 803.513,1174.16L803.513,1948.59C803.513,2040.18 877.872,2114.54 969.462,2114.54L1743.89,2114.54C1835.48,2114.54 1909.84,2040.18 1909.84,1948.59L1909.84,1174.16Z"/>
            </clipPath>
            <g clip-path="url(#_clip1)">
                <g transform="matrix(0.864247,0,0,0.864247,211.031,211.961)">
                    <g transform="matrix(1,0,0,1,-0.919476,-27.8758)">
                        <g transform="matrix(1,0,0,1,614.921,47.2292)">
                            <circle cx="969.462" cy="1174.16" r="163.432" style="fill:white;"/>
                        </g>
                        <g transform="matrix(1,0,0,1,614.921,782.953)">
                            <circle cx="969.462" cy="1174.16" r="163.432" style="fill:white;"/>
                        </g>
                    </g>
                    <g transform="matrix(1,0,0,1,-516.646,-27.8758)">
                        <g transform="matrix(1,0,0,1,614.921,47.2292)">
                            <circle cx="969.462" cy="1174.16" r="163.432" style="fill:white;"/>
                        </g>
                        <g transform="matrix(1,0,0,1,614.921,782.953)">
                            <circle cx="969.462" cy="1174.16" r="163.432" style="fill:white;"/>
                        </g>
                    </g>
                </g>
                <g transform="matrix(0.864247,0,0,0.864247,518.823,546.611)">
                    <circle cx="969.462" cy="1174.16" r="163.432" style="fill:white;"/>
                </g>
            </g>
        </g>
    </g>
</svg>
